<svg xmlns="http://www.w3.org/2000/svg" width="68" height="12"><path fill="#FFF" fill-rule="evenodd" d="M62 0a6 6 0 110 12H6A6 6 0 116 0h56zM38.487 4.086c-.444 0-.85.097-1.219.292a2.23 2.23 0 00-.877.824 2.303 2.303 0 00-.325 1.224c0 .462.108.87.325 1.224.216.354.508.628.877.823a2.57 2.57 0 001.22.293c.654 0 1.163-.201 1.53-.603v.207c0 .444-.116.775-.347.995-.231.219-.59.328-1.075.328a3.08 3.08 0 01-.936-.149 2.296 2.296 0 01-.774-.4l-.559 1.008a2.92 2.92 0 001.044.495c.42.114.864.171 1.332.171.889 0 1.563-.216 2.025-.648.463-.432.694-1.092.694-1.98V4.158H40.09v.621c-.367-.462-.9-.693-1.603-.693zm22.977 0c-.666 0-1.172.21-1.52.63v-.558h-1.342v6.588h1.405V8.487c.354.39.84.585 1.458.585.45 0 .859-.103 1.228-.31a2.23 2.23 0 00.869-.874c.21-.375.315-.811.315-1.309 0-.498-.105-.934-.316-1.31a2.23 2.23 0 00-.868-.873 2.468 2.468 0 00-1.228-.31zm-32.201 0c-.39 0-.77.051-1.139.153a3.041 3.041 0 00-.95.432l.505.981a2.03 2.03 0 01.634-.329 2.47 2.47 0 01.76-.121c.373 0 .651.082.837.247.187.166.28.401.28.707h-1.117c-.708 0-1.231.129-1.57.387-.339.258-.509.612-.509 1.062 0 .282.072.534.216.756.145.222.353.396.626.522s.595.189.968.189c.72 0 1.211-.225 1.476-.675V9h1.313V6.237c0-.72-.2-1.258-.602-1.615-.403-.358-.978-.536-1.729-.536zm-20.89 0c-.462 0-.862.066-1.201.198-.339.132-.597.316-.774.554a1.325 1.325 0 00-.265.814c0 .366.094.648.283.846.189.198.412.336.67.414.259.078.585.147.982.207.336.042.584.093.747.153.162.06.242.159.242.297 0 .294-.296.441-.89.441-.295 0-.594-.043-.9-.13a2.945 2.945 0 01-.784-.338L6.017 8.55c.228.15.533.274.918.373.384.1.776.149 1.179.149.474 0 .883-.064 1.228-.193.345-.13.607-.311.788-.545.18-.234.27-.501.27-.801 0-.354-.093-.63-.28-.828a1.46 1.46 0 00-.656-.41 8.285 8.285 0 00-.972-.211c-.355-.054-.612-.111-.774-.171-.163-.06-.244-.165-.244-.315 0-.132.075-.24.226-.324.15-.084.374-.126.675-.126.504 0 .968.12 1.394.36l.468-.999a2.855 2.855 0 00-.841-.31 4.715 4.715 0 00-1.021-.113zm7.822 0a2.71 2.71 0 00-1.319.32c-.393.213-.702.51-.927.89a2.474 2.474 0 00-.338 1.283c0 .48.114.909.342 1.287.229.378.552.673.973.886.42.214.902.32 1.449.32.876 0 1.541-.261 1.997-.783l-.747-.81a1.64 1.64 0 01-.544.356 1.859 1.859 0 01-.67.112c-.367 0-.672-.087-.919-.261a1.14 1.14 0 01-.468-.711h3.664l.024-.324.003-.054c0-.504-.11-.946-.329-1.328a2.233 2.233 0 00-.904-.877 2.7 2.7 0 00-1.287-.306zm37.602.072h-1.404v2.736c0 .72.185 1.263.557 1.629.373.366.876.549 1.512.549.3 0 .58-.055.837-.166.259-.112.48-.272.666-.482V9h1.332V4.158h-1.403v2.394c0 .432-.102.757-.306.977-.205.219-.474.328-.81.328-.655 0-.981-.39-.981-1.17V4.158zm-4.968-.072c-.51 0-.968.106-1.373.32a2.375 2.375 0 00-.95.886 2.443 2.443 0 00-.342 1.287 2.375 2.375 0 001.292 2.173c.405.214.862.32 1.373.32.51 0 .965-.106 1.367-.32.403-.213.717-.508.946-.886.228-.378.341-.807.341-1.287 0-.48-.113-.909-.341-1.287a2.383 2.383 0 00-.946-.886 2.877 2.877 0 00-1.367-.32zm-36.163.072h-1.404V9h1.404V4.158zm9.99-.072c-.372 0-.7.06-.985.18-.285.12-.511.297-.68.531v-.639h-1.34V9h1.404V6.714c0-.45.113-.787.341-1.013.229-.225.543-.337.945-.337.055 0 .16.006.316.018zm23.077 0c-.373 0-.701.06-.986.18-.285.12-.511.297-.68.531v-.639h-1.34V9h1.404V6.714c0-.45.113-.787.341-1.013.229-.225.543-.337.945-.337.055 0 .16.006.316.018zm-19.233 0c-.373 0-.701.06-.986.18-.285.12-.511.297-.68.531v-.639h-1.34V9h1.404V6.714c0-.45.113-.787.341-1.013.229-.225.543-.337.945-.337.055 0 .16.006.316.018zm3.69 2.889v.495a.911.911 0 01-.396.49 1.223 1.223 0 01-.64.167c-.246 0-.439-.052-.58-.158a.505.505 0 01-.212-.427c0-.378.288-.567.865-.567h.962zm18.638-1.737c.36 0 .656.121.887.364.231.244.346.569.346.977 0 .408-.115.733-.346.977a1.17 1.17 0 01-.887.364c-.36 0-.656-.121-.89-.364-.235-.244-.352-.569-.352-.977 0-.408.117-.733.352-.976.234-.244.53-.365.89-.365zm12.393 0c.36 0 .656.121.887.364.231.244.347.569.347.977 0 .408-.116.733-.347.977a1.17 1.17 0 01-.886.364 1.17 1.17 0 01-.887-.364c-.231-.244-.346-.569-.346-.977 0-.408.115-.733.346-.976a1.17 1.17 0 01.886-.365zm-22.454 0c.372 0 .676.11.913.328.237.22.355.506.355.86s-.118.64-.355.86c-.237.219-.541.328-.913.328-.373 0-.678-.11-.919-.329-.24-.219-.36-.505-.36-.859s.12-.64.36-.86c.24-.219.546-.328.919-.328zm-3.538.666h-2.547v1.125h2.547V5.904zm-19.026-.756c.313 0 .576.091.793.275.216.183.347.427.396.733h-2.385a1.15 1.15 0 01.396-.738c.216-.18.482-.27.8-.27zm-4.239-3.231c-.258 0-.467.075-.63.225a.73.73 0 00-.242.558.73.73 0 00.242.558c.163.15.372.225.63.225.259 0 .468-.076.63-.23a.764.764 0 00.244-.58.693.693 0 00-.243-.54c-.163-.144-.372-.216-.63-.216z" opacity=".704"/></svg>