<svg xmlns="http://www.w3.org/2000/svg" width="20" height="20"><path fill="#DDD" fill-rule="evenodd" d="M7.49 12.59c1.436 0 2.657-.5 3.663-1.5 1.006-1 1.509-2.215 1.509-3.643 0-1.429-.503-2.643-1.509-3.643-1.006-1-2.227-1.5-3.664-1.5-1.437 0-2.658.5-3.664 1.5-1.005 1-1.508 2.214-1.508 3.643 0 1.428.503 2.643 1.508 3.643 1.006 1 2.227 1.5 3.664 1.5zm6.896 0l5.711 5.679-1.724 1.714-5.711-5.679v-.91l-.324-.322c-1.365 1.179-2.981 1.768-4.849 1.768-2.083 0-3.852-.714-5.307-2.143C.727 11.268 0 9.518 0 7.447c0-2.072.727-3.83 2.182-5.277S5.406 0 7.49 0c2.084 0 3.844.723 5.28 2.17 1.437 1.446 2.156 3.205 2.156 5.277 0 1.857-.593 3.464-1.778 4.821l.323.322h.916z"/></svg>