<svg xmlns="http://www.w3.org/2000/svg" width="73" height="32" viewBox="0 0 73 32">
    <path fill="#FFF" fill-rule="evenodd" d="M43.65 25.894c.919 0 1.623.22 2.116.656.45.4.696.988.733 1.762l.005.216v3.383h-1.61v-.737c-.322.55-.925.826-1.806.826-.456 0-.852-.078-1.185-.233a1.773 1.773 0 0 1-.767-.637 1.675 1.675 0 0 1-.264-.926c0-.552.208-.985.623-1.302.373-.283.93-.439 1.67-.467l.254-.005h1.366c0-.376-.114-.664-.341-.867-.229-.202-.57-.302-1.026-.302-.316 0-.627.048-.931.148a2.59 2.59 0 0 0-.644.306l-.133.097-.617-1.202a3.7 3.7 0 0 1 1.162-.528 5.163 5.163 0 0 1 1.395-.188zm-22.955-2.16v8.178h-1.643v-.683c-.425.515-1.043.77-1.851.77a3.084 3.084 0 0 1-1.517-.375 2.671 2.671 0 0 1-1.063-1.068c-.257-.463-.385-1-.385-1.608 0-.611.128-1.148.385-1.61a2.693 2.693 0 0 1 1.063-1.07 3.094 3.094 0 0 1 1.517-.373c.687 0 1.24.197 1.653.591l.12.125v-2.876h1.72zm4.487 2.16c.624 0 1.182.13 1.674.392.493.26.879.623 1.158 1.086.279.462.419.987.419 1.576 0 .588-.14 1.113-.42 1.576a2.915 2.915 0 0 1-1.157 1.086c-.492.26-1.05.39-1.674.39-.625 0-1.186-.13-1.681-.39a2.909 2.909 0 0 1-1.163-1.086 2.993 2.993 0 0 1-.42-1.576c0-.59.14-1.114.42-1.576a2.902 2.902 0 0 1 1.163-1.086c.495-.261 1.056-.391 1.68-.391zm29.856 0c.735 0 1.328.22 1.78.662.41.401.635.978.672 1.73l.006.23v3.396h-1.72v-3.13c0-.47-.102-.821-.308-1.052-.206-.231-.504-.348-.893-.348-.433 0-.778.134-1.036.404-.225.233-.352.568-.38 1.002l-.006.193v2.93h-1.72v-5.928h1.643v.693a2.29 2.29 0 0 1 .849-.577 2.936 2.936 0 0 1 1.113-.204zm-17.787 0c.742 0 1.332.22 1.77.656.397.398.614.975.65 1.734l.005.233v3.395h-1.72v-3.13c0-.47-.098-.821-.292-1.052-.195-.231-.472-.348-.832-.348-.404 0-.724.13-.958.39-.206.23-.322.555-.347.977l-.006.188v2.975h-1.719v-3.13c0-.934-.375-1.4-1.125-1.4-.396 0-.713.13-.947.39-.205.23-.321.555-.347.977l-.006.188v2.975h-1.719v-5.93H31.3v.684c.22-.25.491-.44.81-.573.32-.133.67-.198 1.052-.198.42 0 .797.082 1.135.247.338.166.61.406.816.723.242-.31.55-.548.92-.717a2.919 2.919 0 0 1 1.218-.253zm12.535.088v5.929h-1.719v-5.929h1.719zm-5.002 3.45h-1.178c-.706 0-1.059.231-1.059.694 0 .22.087.394.26.523.171.13.41.194.71.194.293 0 .554-.069.782-.204.19-.113.335-.272.432-.474l.053-.127v-.606zM17.5 27.306c-.441 0-.805.148-1.091.445-.288.298-.43.697-.43 1.197 0 .5.143.897.43 1.195.285.298.65.446 1.09.446.433 0 .793-.148 1.08-.446.287-.298.43-.695.43-1.195 0-.5-.143-.9-.43-1.197a1.439 1.439 0 0 0-1.08-.445zm7.683 0c-.442 0-.805.148-1.092.445-.286.298-.43.697-.43 1.197 0 .5.144.897.43 1.195.287.298.65.446 1.092.446.44 0 .802-.148 1.085-.446.283-.298.424-.695.424-1.195 0-.5-.141-.9-.424-1.197-.283-.297-.645-.445-1.085-.445zm23.745-4.068c.316 0 .573.09.77.265a.845.845 0 0 1 .299.661.935.935 0 0 1-.298.711c-.198.186-.455.281-.771.281s-.573-.092-.771-.276a.891.891 0 0 1-.298-.683c0-.272.099-.5.298-.684.198-.183.455-.275.77-.275zM61.069 0c6.103 0 11.05 4.947 11.05 11.05 0 6.005-4.791 10.893-10.76 11.046l-.29.004h-50.02C4.948 22.1 0 17.152 0 11.05 0 5.044 4.792.157 10.76.004L11.05 0h50.019zM13.534 5.634c-.846 0-1.594.142-2.247.428-.652.284-1.161.682-1.53 1.192-.366.509-.547 1.104-.544 1.78-.003.836.267 1.495.812 1.977.544.482 1.289.825 2.236 1.03l1.064.23.228.053c.29.071.53.147.717.226.233.1.4.21.503.334a.676.676 0 0 1 .159.43.749.749 0 0 1-.167.465 1.062 1.062 0 0 1-.474.319 2.299 2.299 0 0 1-.778.114c-.37 0-.686-.058-.952-.172a1.36 1.36 0 0 1-.62-.506c-.145-.222-.227-.497-.244-.825H8.942L8.95 13c.04.764.23 1.4.569 1.907.38.573.916.996 1.607 1.272.69.274 1.5.412 2.429.412.904 0 1.679-.127 2.324-.382.646-.253 1.142-.624 1.49-1.11.347-.49.524-1.082.527-1.785a3.299 3.299 0 0 0-.196-1.127 2.634 2.634 0 0 0-.592-.932 3.629 3.629 0 0 0-1.033-.722 6.594 6.594 0 0 0-1.518-.497l-.877-.187-.184-.041a4.638 4.638 0 0 1-.473-.136 2.03 2.03 0 0 1-.455-.223.78.78 0 0 1-.258-.276.657.657 0 0 1-.07-.347.706.706 0 0 1 .14-.417.917.917 0 0 1 .42-.291c.19-.07.435-.106.734-.106.47 0 .82.097 1.052.292.23.195.36.467.388.814h2.776l-.01-.258a3.23 3.23 0 0 0-.51-1.576c-.342-.524-.828-.93-1.458-1.218-.63-.29-1.375-.433-2.238-.433zm8.426.145h-2.901v10.687h2.901V5.779zm37.689 0h-3.965l-3.527 10.687h3.13l.618-2.046h3.523l.618 2.046h3.13L59.65 5.779zm-28.535 0h-7.702v10.687h7.682v-2.338h-4.78v-1.836h4.403V9.954h-4.404V8.117h4.801V5.779zm5.836 0h-4.612v10.686h2.9v-3.527h1.005l1.876 3.527h3.152l-2.177-3.996.202-.105c.459-.254.835-.589 1.111-1.018.34-.524.51-1.17.51-1.934 0-.76-.166-1.41-.496-1.953a3.268 3.268 0 0 0-1.389-1.247c-.595-.288-1.289-.433-2.082-.433zm9.892 0H42.23v10.686h2.9v-3.527h1.005l1.876 3.527h3.152l-2.177-3.996.201-.105c.46-.254.835-.589 1.112-1.018.34-.524.509-1.17.509-1.934 0-.76-.165-1.41-.495-1.953a3.268 3.268 0 0 0-1.39-1.247c-.594-.288-1.288-.433-2.081-.433zm10.866 2.943l1.065 3.528H56.56l1.065-3.528h.083zM36.26 8.097c.341 0 .632.046.874.138.242.091.428.235.56.428.13.194.195.441.195.748 0 .303-.066.55-.196.737a1.108 1.108 0 0 1-.559.409 2.62 2.62 0 0 1-.874.127h-1.023V8.098zm9.892 0c.34 0 .633.046.875.138.24.091.427.235.558.428.13.194.196.441.196.748 0 .303-.066.55-.196.737a1.11 1.11 0 0 1-.558.409 2.627 2.627 0 0 1-.875.127H45.13V8.098z"/>
</svg>
